<?xml version="1.0" encoding="iso-8859-1"?>
<!-- Generator: Adobe Illustrator 19.0.0, SVG Export Plug-In . SVG Version: 6.00 Build 0)  -->
<svg version="1.1" id="Capa_1" xmlns="http://www.w3.org/2000/svg" xmlns:xlink="http://www.w3.org/1999/xlink" x="0px" y="0px"
	 viewBox="0 0 297.667 297.667" style="enable-background:new 0 0 297.667 297.667;" xml:space="preserve">
<g>
	<path d="M290,206.833H156.667v-76h86.579c2.177,0,4.261-0.667,5.769-2.236c1.509-1.57,2.313-3.577,2.225-5.752
		c-1.058-26.456-12.329-51.059-31.432-69.461c-17.227-16.594-39.14-26.471-63.14-28.296V15.9c0-4.418-3.582-8-8-8
		c-4.418,0-8,3.582-8,8v9.188c-23,1.825-45.58,11.711-62.807,28.305c-19.104,18.402-30.125,43.106-31.182,69.563
		c-0.088,2.175,0.758,4.071,2.266,5.642c1.508,1.569,3.633,2.236,5.81,2.236h85.913v76H99.904L37.485,144.58
		c-3.124-3.116-8.184-3.1-11.308,0.022L2.844,167.945c-3.121,3.121-3.124,8.187-0.006,11.312l38.472,38.526l-22.082,22.051H8
		c-4.418,0-8,3.582-8,8s3.582,8,8,8h31.227L19.01,276.085c-3.124,3.125-3.124,8.206,0,11.331c1.563,1.562,3.609,2.352,5.657,2.352
		c2.048,0,4.095-0.811,5.657-2.372l31.532-31.561h173.621l31.532,31.565c1.563,1.562,3.609,2.359,5.657,2.359
		c2.048,0,4.095-0.772,5.657-2.335c3.124-3.125,3.124-8.218,0-11.343l-20.218-20.247H290c4.418,0,7.667-3.516,7.667-7.934v-33
		C297.667,210.482,294.418,206.833,290,206.833z M41.856,239.833l10.755-10.755l10.731,10.755H41.856z"/>
</g>
<g>
</g>
<g>
</g>
<g>
</g>
<g>
</g>
<g>
</g>
<g>
</g>
<g>
</g>
<g>
</g>
<g>
</g>
<g>
</g>
<g>
</g>
<g>
</g>
<g>
</g>
<g>
</g>
<g>
</g>
</svg>
